<mxfile host="Electron" modified="2024-04-26T13:44:57.009Z" agent="Mozilla/5.0 (Macintosh; Intel Mac OS X 10_15_7) AppleWebKit/537.36 (KHTML, like Gecko) draw.io/23.1.5 Chrome/120.0.6099.109 Electron/28.1.0 Safari/537.36" etag="01n3lQiRegB9d8cn4p-4" version="23.1.5" type="device">
  <diagram name="Seite-1" id="gBhcTru00HOKfw2xjCge">
    <mxGraphModel dx="641" dy="483" grid="1" gridSize="10" guides="1" tooltips="1" connect="1" arrows="1" fold="1" page="1" pageScale="1" pageWidth="827" pageHeight="1169" math="0" shadow="0">
      <root>
        <mxCell id="0" />
        <mxCell id="1" parent="0" />
        <mxCell id="xzg5IWgxa_GXpr8kJaNS-7" style="edgeStyle=orthogonalEdgeStyle;rounded=0;orthogonalLoop=1;jettySize=auto;html=1;exitX=0.5;exitY=1;exitDx=0;exitDy=0;entryX=0.5;entryY=0;entryDx=0;entryDy=0;endArrow=none;endFill=0;" edge="1" parent="1" source="xzg5IWgxa_GXpr8kJaNS-1" target="xzg5IWgxa_GXpr8kJaNS-3">
          <mxGeometry relative="1" as="geometry" />
        </mxCell>
        <mxCell id="xzg5IWgxa_GXpr8kJaNS-1" value="1" style="rounded=0;whiteSpace=wrap;html=1;" vertex="1" parent="1">
          <mxGeometry x="160" y="120" width="20" height="40" as="geometry" />
        </mxCell>
        <mxCell id="xzg5IWgxa_GXpr8kJaNS-9" style="edgeStyle=orthogonalEdgeStyle;rounded=0;orthogonalLoop=1;jettySize=auto;html=1;exitX=0.5;exitY=1;exitDx=0;exitDy=0;entryX=0.5;entryY=0;entryDx=0;entryDy=0;endArrow=none;endFill=0;" edge="1" parent="1" source="xzg5IWgxa_GXpr8kJaNS-3" target="xzg5IWgxa_GXpr8kJaNS-4">
          <mxGeometry relative="1" as="geometry" />
        </mxCell>
        <mxCell id="xzg5IWgxa_GXpr8kJaNS-3" value="1" style="rounded=0;whiteSpace=wrap;html=1;" vertex="1" parent="1">
          <mxGeometry x="160" y="180" width="20" height="40" as="geometry" />
        </mxCell>
        <mxCell id="xzg5IWgxa_GXpr8kJaNS-10" style="edgeStyle=orthogonalEdgeStyle;rounded=0;orthogonalLoop=1;jettySize=auto;html=1;exitX=0.5;exitY=1;exitDx=0;exitDy=0;entryX=0.5;entryY=0;entryDx=0;entryDy=0;endArrow=none;endFill=0;" edge="1" parent="1" source="xzg5IWgxa_GXpr8kJaNS-4" target="xzg5IWgxa_GXpr8kJaNS-5">
          <mxGeometry relative="1" as="geometry" />
        </mxCell>
        <mxCell id="xzg5IWgxa_GXpr8kJaNS-4" value="1" style="rounded=0;whiteSpace=wrap;html=1;" vertex="1" parent="1">
          <mxGeometry x="160" y="240" width="20" height="40" as="geometry" />
        </mxCell>
        <mxCell id="xzg5IWgxa_GXpr8kJaNS-12" style="edgeStyle=orthogonalEdgeStyle;rounded=0;orthogonalLoop=1;jettySize=auto;html=1;exitX=0.5;exitY=1;exitDx=0;exitDy=0;entryX=0.5;entryY=0;entryDx=0;entryDy=0;endArrow=none;endFill=0;" edge="1" parent="1" source="xzg5IWgxa_GXpr8kJaNS-5" target="xzg5IWgxa_GXpr8kJaNS-6">
          <mxGeometry relative="1" as="geometry" />
        </mxCell>
        <mxCell id="xzg5IWgxa_GXpr8kJaNS-5" value="1" style="rounded=0;whiteSpace=wrap;html=1;" vertex="1" parent="1">
          <mxGeometry x="160" y="300" width="20" height="40" as="geometry" />
        </mxCell>
        <mxCell id="xzg5IWgxa_GXpr8kJaNS-6" value="1" style="rounded=0;whiteSpace=wrap;html=1;" vertex="1" parent="1">
          <mxGeometry x="160" y="360" width="20" height="40" as="geometry" />
        </mxCell>
        <mxCell id="xzg5IWgxa_GXpr8kJaNS-13" value="5V" style="endArrow=classic;html=1;rounded=0;" edge="1" parent="1">
          <mxGeometry width="50" height="50" relative="1" as="geometry">
            <mxPoint x="110" y="100" as="sourcePoint" />
            <mxPoint x="110" y="420" as="targetPoint" />
          </mxGeometry>
        </mxCell>
        <mxCell id="xzg5IWgxa_GXpr8kJaNS-14" value="" style="endArrow=none;html=1;rounded=0;strokeColor=#FF0000;endFill=0;startArrow=classic;startFill=1;" edge="1" parent="1">
          <mxGeometry width="50" height="50" relative="1" as="geometry">
            <mxPoint x="170" y="120" as="sourcePoint" />
            <mxPoint x="170" y="100" as="targetPoint" />
          </mxGeometry>
        </mxCell>
        <mxCell id="xzg5IWgxa_GXpr8kJaNS-19" value="I" style="edgeLabel;html=1;align=center;verticalAlign=middle;resizable=0;points=[];fontColor=#FF0000;" vertex="1" connectable="0" parent="xzg5IWgxa_GXpr8kJaNS-14">
          <mxGeometry x="-0.3434" relative="1" as="geometry">
            <mxPoint x="-10" y="-6" as="offset" />
          </mxGeometry>
        </mxCell>
        <mxCell id="xzg5IWgxa_GXpr8kJaNS-16" value="" style="endArrow=none;html=1;rounded=0;" edge="1" parent="1">
          <mxGeometry width="50" height="50" relative="1" as="geometry">
            <mxPoint x="169.88" y="420" as="sourcePoint" />
            <mxPoint x="169.88" y="400" as="targetPoint" />
          </mxGeometry>
        </mxCell>
        <mxCell id="xzg5IWgxa_GXpr8kJaNS-23" value="" style="endArrow=none;html=1;rounded=0;" edge="1" parent="1">
          <mxGeometry width="50" height="50" relative="1" as="geometry">
            <mxPoint x="210" y="420" as="sourcePoint" />
            <mxPoint x="110" y="420" as="targetPoint" />
          </mxGeometry>
        </mxCell>
        <mxCell id="xzg5IWgxa_GXpr8kJaNS-37" value="0V" style="edgeLabel;html=1;align=center;verticalAlign=middle;resizable=0;points=[];" vertex="1" connectable="0" parent="xzg5IWgxa_GXpr8kJaNS-23">
          <mxGeometry x="-0.55" relative="1" as="geometry">
            <mxPoint x="33" as="offset" />
          </mxGeometry>
        </mxCell>
        <mxCell id="xzg5IWgxa_GXpr8kJaNS-26" value="" style="endArrow=none;html=1;rounded=0;" edge="1" parent="1">
          <mxGeometry width="50" height="50" relative="1" as="geometry">
            <mxPoint x="170" y="350" as="sourcePoint" />
            <mxPoint x="210" y="350" as="targetPoint" />
          </mxGeometry>
        </mxCell>
        <mxCell id="xzg5IWgxa_GXpr8kJaNS-27" value="1V" style="edgeLabel;html=1;align=center;verticalAlign=middle;resizable=0;points=[];" vertex="1" connectable="0" parent="xzg5IWgxa_GXpr8kJaNS-26">
          <mxGeometry x="0.3654" relative="1" as="geometry">
            <mxPoint as="offset" />
          </mxGeometry>
        </mxCell>
        <mxCell id="xzg5IWgxa_GXpr8kJaNS-28" value="" style="endArrow=none;html=1;rounded=0;" edge="1" parent="1">
          <mxGeometry width="50" height="50" relative="1" as="geometry">
            <mxPoint x="170" y="290" as="sourcePoint" />
            <mxPoint x="210" y="290" as="targetPoint" />
          </mxGeometry>
        </mxCell>
        <mxCell id="xzg5IWgxa_GXpr8kJaNS-29" value="2V" style="edgeLabel;html=1;align=center;verticalAlign=middle;resizable=0;points=[];" vertex="1" connectable="0" parent="xzg5IWgxa_GXpr8kJaNS-28">
          <mxGeometry x="0.3654" relative="1" as="geometry">
            <mxPoint as="offset" />
          </mxGeometry>
        </mxCell>
        <mxCell id="xzg5IWgxa_GXpr8kJaNS-31" value="" style="endArrow=none;html=1;rounded=0;" edge="1" parent="1">
          <mxGeometry width="50" height="50" relative="1" as="geometry">
            <mxPoint x="170" y="230" as="sourcePoint" />
            <mxPoint x="210" y="230" as="targetPoint" />
          </mxGeometry>
        </mxCell>
        <mxCell id="xzg5IWgxa_GXpr8kJaNS-32" value="3V" style="edgeLabel;html=1;align=center;verticalAlign=middle;resizable=0;points=[];" vertex="1" connectable="0" parent="xzg5IWgxa_GXpr8kJaNS-31">
          <mxGeometry x="0.3654" relative="1" as="geometry">
            <mxPoint as="offset" />
          </mxGeometry>
        </mxCell>
        <mxCell id="xzg5IWgxa_GXpr8kJaNS-33" value="" style="endArrow=none;html=1;rounded=0;" edge="1" parent="1">
          <mxGeometry width="50" height="50" relative="1" as="geometry">
            <mxPoint x="170" y="172.5" as="sourcePoint" />
            <mxPoint x="210" y="172.5" as="targetPoint" />
          </mxGeometry>
        </mxCell>
        <mxCell id="xzg5IWgxa_GXpr8kJaNS-34" value="4V" style="edgeLabel;html=1;align=center;verticalAlign=middle;resizable=0;points=[];" vertex="1" connectable="0" parent="xzg5IWgxa_GXpr8kJaNS-33">
          <mxGeometry x="0.3654" relative="1" as="geometry">
            <mxPoint as="offset" />
          </mxGeometry>
        </mxCell>
        <mxCell id="xzg5IWgxa_GXpr8kJaNS-35" value="" style="endArrow=none;html=1;rounded=0;" edge="1" parent="1">
          <mxGeometry width="50" height="50" relative="1" as="geometry">
            <mxPoint x="170" y="110" as="sourcePoint" />
            <mxPoint x="210" y="110" as="targetPoint" />
          </mxGeometry>
        </mxCell>
        <mxCell id="xzg5IWgxa_GXpr8kJaNS-36" value="5V" style="edgeLabel;html=1;align=center;verticalAlign=middle;resizable=0;points=[];" vertex="1" connectable="0" parent="xzg5IWgxa_GXpr8kJaNS-35">
          <mxGeometry x="0.3654" relative="1" as="geometry">
            <mxPoint as="offset" />
          </mxGeometry>
        </mxCell>
      </root>
    </mxGraphModel>
  </diagram>
</mxfile>
